<svg xmlns="http://www.w3.org/2000/svg" viewBox="0 0 512 512">
  <defs>
    <linearGradient id="g" x1="0%" y1="0%" x2="100%" y2="100%">
      <stop offset="0%" style="stop-color:#c4b5fd"/>
      <stop offset="100%" style="stop-color:#f472b6"/>
    </linearGradient>
  </defs>
  <rect width="512" height="512" rx="112" fill="url(#g)"/>
  <path fill="#fff" fill-opacity=".95" d="M156 160c24-40 88-44 120 8 32-52 96-48 120 8 28 48 8 112-48 136l-92 48c-8 4-18 4-26 0l-92-48c-56-24-76-88-48-136zm184 196c-18 36-58 60-102 60s-84-24-102-60l-36 20v76h276v-76l-36-20z"/>
</svg>
